<svg xmlns="http://www.w3.org/2000/svg" width="32" height="48" viewBox="0 0 32 48" fill="none"><path fill-rule="evenodd" clip-rule="evenodd" d="M24.4956 1.71685C25.3969 -0.69421 24.8116 -0.328767 24.8488 1.35208C24.9025 3.73241 25.2973 5.93225 25.7181 8.00084C27.8151 18.3315 32.6229 25.3071 31.9329 33.8129C31.6792 36.9517 30.2566 39.6111 28.4895 41.6204C27.228 43.0431 26.2159 44.9831 27.6428 47.2344C27.6913 47.31 23.9094 45.5065 21.1353 47.6958C20.8756 47.9012 20.6141 48.0051 20.6185 47.9998C21.3821 47.0862 23.8626 44.0363 22.4713 41.5767C22.4419 41.5246 24.7891 43.5694 26.8644 42.281C27.4246 41.9334 28.112 41.3654 28.4488 40.8245C29.8324 38.6024 29.9787 33.6129 29.9805 32.0174C29.9848 27.2627 27.5328 23.0929 25.9198 18.3507C24.9518 15.5061 24.2462 7.68626 24.0661 8.74929C23.9501 9.43059 16.2591 17.2974 15.5734 23.5547C14.8305 30.3334 25.8505 31.2081 22.1778 40.1462C19.2912 47.1693 13.3266 46.4288 12.524 46.3468C7.4792 45.8311 3.87535 43.1858 1.85542 39.2375C0.937143 37.4431 0.346054 35.3791 0.0955758 33.1237C-1.18695 21.5721 10.7309 16.4065 18.2678 9.48387C20.989 6.98491 23.1864 5.22081 24.4956 1.71685Z" fill="#0074FF"></path></svg>